<svg width="50" height="50" viewBox="0 0 50 50" fill="none" xmlns="http://www.w3.org/2000/svg">
<path fill-rule="evenodd" clip-rule="evenodd" d="M25 49C38.2548 49 49 38.2548 49 25C49 11.7452 38.2548 1 25 1C11.7452 1 1 11.7452 1 25C1 38.2548 11.7452 49 25 49ZM25 50C38.8071 50 50 38.8071 50 25C50 11.1929 38.8071 0 25 0C11.1929 0 0 11.1929 0 25C0 38.8071 11.1929 50 25 50Z" fill="black"/>
<path fill-rule="evenodd" clip-rule="evenodd" d="M15 15H36V36H15L15 15ZM11 15C11 12.7909 12.7909 11 15 11H36C38.2091 11 40 12.7909 40 15V36C40 38.2091 38.2091 40 36 40H15C12.7909 40 11 38.2091 11 36V15ZM34.5011 17.8705C35.3487 18.5788 35.4615 19.8401 34.7532 20.6877L25.4116 31.8654C25.1316 32.2005 24.7652 32.4207 24.3721 32.5208C24.2984 32.5395 24.2257 32.5625 24.1547 32.5895C23.36 32.8908 22.4292 32.6597 21.8752 31.9569L17.3158 26.1731C16.632 25.3056 16.7808 24.0481 17.6483 23.3643C18.5157 22.6804 19.7733 22.8293 20.4571 23.6968L22.8827 26.7738C23.2758 27.2724 24.0281 27.2832 24.4353 26.796L31.6839 18.1226C32.3923 17.2751 33.6535 17.1622 34.5011 17.8705Z" fill="black"/>
</svg>
