<svg width="50" height="50" viewBox="0 0 50 50" fill="none" xmlns="http://www.w3.org/2000/svg">
<path fill-rule="evenodd" clip-rule="evenodd" d="M49 25C49 38.2548 38.2548 49 25 49C11.7452 49 1 38.2548 1 25C1 11.7452 11.7452 1 25 1C38.2548 1 49 11.7452 49 25ZM50 25C50 38.8071 38.8071 50 25 50C11.1929 50 0 38.8071 0 25C0 11.1929 11.1929 0 25 0C38.8071 0 50 11.1929 50 25ZM15.6949 13.5C15.6949 12.6716 15.0233 12 14.1949 12C13.3665 12 12.6949 12.6716 12.6949 13.5V31.3182L7.69488 34.5C6.99596 34.9448 6.78993 35.8719 7.2347 36.5708C7.67946 37.2697 8.60659 37.4758 9.3055 37.031L12.6949 34.8741V37.5C12.6949 38.3284 13.3665 39 14.1949 39C15.0233 39 15.6949 38.3284 15.6949 37.5V32.965L19.6949 30.4196V37.5C19.6949 38.3284 20.3665 39 21.1949 39C22.0233 39 22.6949 38.3284 22.6949 37.5V28.5105L26.6949 25.965V37.5C26.6949 38.3284 27.3665 39 28.1949 39C29.0233 39 29.6949 38.3284 29.6949 37.5V24.0559L33.6949 21.5105V37.5C33.6949 38.3284 34.3665 39 35.1949 39C36.0233 39 36.6949 38.3284 36.6949 37.5V19.6014L42.3055 16.031C43.0044 15.5862 43.2104 14.6591 42.7657 13.9602C42.3209 13.2613 41.3938 13.0552 40.6949 13.5L36.6949 16.0455V13.5C36.6949 12.6716 36.0233 12 35.1949 12C34.3665 12 33.6949 12.6716 33.6949 13.5V17.9545L29.6949 20.5V13.5C29.6949 12.6716 29.0233 12 28.1949 12C27.3665 12 26.6949 12.6716 26.6949 13.5V22.4091L22.6949 24.9545V13.5C22.6949 12.6716 22.0233 12 21.1949 12C20.3665 12 19.6949 12.6716 19.6949 13.5V26.8636L15.6949 29.4091L15.6949 13.5Z" fill="black"/>
</svg>
