<svg width="47" height="48" viewBox="0 0 47 48" fill="none" xmlns="http://www.w3.org/2000/svg">
<rect width="47" height="48" rx="8" fill="#F59E0B"/>
<path fill-rule="evenodd" clip-rule="evenodd" d="M44.1362 14.8265L36.9737 4.93559L33.9522 7.2177L41.1148 17.1086L44.1362 14.8265ZM37.7716 4.33288L37.1851 3.52295L36.3871 4.12565L33.3657 6.40777L32.5677 7.01047L33.1542 7.82041L40.3168 17.7113L40.9033 18.5212L41.7013 17.9185L44.7228 15.6364L45.5207 15.0337L44.9342 14.2238L37.7716 4.33288ZM38.8155 18.7101L31.6532 8.81947L10.4785 24.8127L17.6409 34.7033L38.8155 18.7101ZM32.4511 8.21677L31.8646 7.40684L31.0666 8.00954L9.89203 24.0028L9.09406 24.6055L9.68058 25.4154L16.8429 35.306L17.4295 36.1159L18.2274 35.5132L39.402 19.52L40.2 18.9173L39.6135 18.1073L32.4511 8.21677ZM7.71389 26.0149L8.17328 24.9398L8.85525 25.8837L15.9605 35.7174L16.632 36.6468L15.4906 36.778L3.6167 38.1434L2.47534 38.2747L2.92767 37.2161L7.71389 26.0149ZM4.06903 37.0848L8.39586 26.9588L14.8191 35.8487L4.06903 37.0848Z" fill="black"/>
</svg>
