<svg width="36" height="36" viewBox="0 0 36 36" fill="none" xmlns="http://www.w3.org/2000/svg">
<path fill-rule="evenodd" clip-rule="evenodd" d="M21.541 0H14.459V3.37848C12.9287 3.75546 11.4923 4.37125 10.1917 5.18407L7.77583 2.76824L2.76812 7.77594L5.25663 10.2645C4.50375 11.5511 3.94017 12.9621 3.6041 14.459H0V21.541H3.74952C4.13084 22.9611 4.71879 24.2966 5.47914 25.5133L2.76829 28.2241L7.77599 33.2318L10.5595 30.4483C11.7613 31.1515 13.0716 31.6896 14.459 32.0314V36H21.541V32.0314C22.9284 31.6896 24.2386 31.1515 25.4405 30.4483L28.224 33.2318L33.2317 28.2241L30.5209 25.5133C31.2812 24.2966 31.8692 22.9611 32.2505 21.541H36V14.459H32.3959C32.0598 12.9621 31.4962 11.5511 30.7434 10.2644L33.2318 7.77597L28.2241 2.76827L25.8083 5.18406C24.5077 4.37125 23.0713 3.75546 21.541 3.37848V0ZM18 22.4262C20.2816 22.4262 22.1311 20.5767 22.1311 18.2951C22.1311 16.0135 20.2816 14.1639 18 14.1639C15.7184 14.1639 13.8689 16.0135 13.8689 18.2951C13.8689 20.5767 15.7184 22.4262 18 22.4262Z" fill="#D9D9D9"/>
</svg>
