<svg width="50" height="50" viewBox="0 0 50 50" fill="none" xmlns="http://www.w3.org/2000/svg">
<path fill-rule="evenodd" clip-rule="evenodd" d="M25 49C38.2548 49 49 38.2548 49 25C49 11.7452 38.2548 1 25 1C11.7452 1 1 11.7452 1 25C1 38.2548 11.7452 49 25 49ZM25 50C38.8071 50 50 38.8071 50 25C50 11.1929 38.8071 0 25 0C11.1929 0 0 11.1929 0 25C0 38.8071 11.1929 50 25 50Z" fill="black"/>
<circle cx="25" cy="25" r="12.5" stroke="black" stroke-width="7"/>
<rect x="37.4732" y="10.6329" width="7.16483" height="5.05068" rx="1" transform="rotate(50.8161 37.4732 10.6329)" fill="black"/>
<rect x="37.429" y="11.503" width="5.56325" height="2.46121" rx="1" transform="rotate(50.8161 37.429 11.503)" fill="black"/>
<rect x="21" y="5.17474" width="7.91973" height="5" rx="1" transform="rotate(-1.26441 21 5.17474)" fill="black"/>
<rect x="21.6596" y="6.05975" width="6.84144" height="2.46" rx="1" transform="rotate(-0.481638 21.6596 6.05975)" fill="black"/>
<path d="M25 27L30 21" stroke="black" stroke-linecap="round"/>
<path d="M25 18L25 27" stroke="black" stroke-linecap="round"/>
</svg>
