<svg width="168" height="53" viewBox="0 0 168 53" fill="none" xmlns="http://www.w3.org/2000/svg">
<rect width="168" height="53" rx="8" fill="#22C55E"/>
<path d="M46.6805 35.048C46.6165 34.744 46.6165 34.448 46.6805 34.16H48.4085C48.4885 33.44 48.5445 32.744 48.5765 32.072C48.6245 31.384 48.6485 30.68 48.6485 29.96V23.24C48.6485 22.52 48.6245 21.84 48.5765 21.2C48.5445 20.56 48.4885 19.88 48.4085 19.16H47.0165C45.8965 19.16 45.0885 19.448 44.5925 20.024C44.0965 20.6 43.7845 21.608 43.6565 23.048C43.4005 23.096 43.1445 23.096 42.8885 23.048V18.2H57.0485V23.048C56.7925 23.096 56.5365 23.096 56.2805 23.048C56.1685 21.608 55.8645 20.6 55.3685 20.024C54.8725 19.448 54.0565 19.16 52.9205 19.16H51.5285C51.4485 19.88 51.3845 20.56 51.3365 21.2C51.3045 21.84 51.2885 22.52 51.2885 23.24V29.96C51.2885 30.68 51.3045 31.384 51.3365 32.072C51.3845 32.744 51.4485 33.44 51.5285 34.16H53.2565C53.3205 34.448 53.3205 34.744 53.2565 35.048C52.7125 35.016 52.1685 35 51.6245 35C51.0805 35 50.5285 35 49.9685 35C49.4245 35 48.8805 35 48.3365 35C47.7925 35 47.2405 35.016 46.6805 35.048ZM56.9075 35.048C56.8435 34.744 56.8435 34.448 56.9075 34.16H58.2755C58.3555 33.552 58.4115 32.968 58.4435 32.408C58.4915 31.848 58.5155 31.272 58.5155 30.68V28.76C58.5155 27.608 58.4355 26.464 58.2755 25.328H57.0275C56.9635 25.024 56.9635 24.728 57.0275 24.44C57.5875 24.44 58.1875 24.424 58.8275 24.392C59.4675 24.344 60.1235 24.256 60.7955 24.128C60.7155 24.416 60.6515 24.752 60.6035 25.136C60.5715 25.504 60.5555 25.872 60.5555 26.24L60.7955 27.32V30.68C60.7955 31.272 60.8115 31.848 60.8435 32.408C60.8915 32.968 60.9555 33.552 61.0355 34.16H63.1235C63.1875 34.448 63.1875 34.744 63.1235 35.048C62.2755 35.016 61.6035 35 61.1075 35C60.6115 35 60.1315 35 59.6675 35C59.2035 35 58.7475 35 58.2995 35C57.8675 35 57.4035 35.016 56.9075 35.048ZM63.7715 27.2C63.8355 26.608 63.8035 26.144 63.6755 25.808C63.5635 25.456 63.3075 25.28 62.9075 25.28C62.5235 25.28 62.1635 25.456 61.8275 25.808C61.5075 26.16 61.1635 26.664 60.7955 27.32L60.5555 26.24C60.9395 25.552 61.3875 25.024 61.8995 24.656C62.4275 24.272 63.0595 24.08 63.7955 24.08C64.3875 24.08 64.8595 24.184 65.2115 24.392C65.5795 24.6 65.8435 24.936 66.0035 25.4C66.1635 25.848 66.2195 26.448 66.1715 27.2H63.7715ZM70.7263 35.36C69.7023 35.36 68.8463 35.088 68.1583 34.544C67.4863 33.984 67.1503 33.224 67.1503 32.264C67.1503 31.544 67.3423 30.944 67.7263 30.464C68.1103 29.984 68.6303 29.624 69.2863 29.384C69.9583 29.128 70.7023 29 71.5183 29C72.1263 29 72.6303 29.048 73.0303 29.144C73.4303 29.24 73.7743 29.344 74.0623 29.456V30.416C73.4063 30.112 72.7343 29.96 72.0463 29.96C71.3583 29.96 70.7663 30.144 70.2703 30.512C69.7903 30.864 69.5503 31.424 69.5503 32.192C69.5503 32.832 69.7023 33.352 70.0063 33.752C70.3103 34.136 70.7583 34.328 71.3503 34.328C71.9583 34.328 72.4703 34.192 72.8863 33.92C73.3183 33.632 73.7103 33.312 74.0623 32.96L74.2063 33.92C73.7903 34.32 73.3263 34.664 72.8143 34.952C72.3023 35.224 71.6063 35.36 70.7263 35.36ZM76.3423 27.704V32.96C76.3423 33.424 76.4623 33.744 76.7023 33.92C76.9583 34.08 77.3343 34.16 77.8303 34.16C77.8783 34.448 77.8783 34.744 77.8303 35.048C77.5743 35.112 77.2943 35.16 76.9903 35.192C76.7023 35.224 76.4463 35.24 76.2223 35.24C75.5823 35.24 75.1103 35.12 74.8063 34.88C74.5183 34.64 74.3183 34.32 74.2063 33.92L74.0623 32.96V27.872C74.0623 26.896 73.9023 26.168 73.5823 25.688C73.2783 25.208 72.7743 24.968 72.0703 24.968C71.4143 24.968 70.9103 25.16 70.5583 25.544C70.2223 25.912 70.0863 26.464 70.1503 27.2H67.7503C67.7503 26.672 67.9263 26.176 68.2783 25.712C68.6463 25.232 69.1663 24.84 69.8383 24.536C70.5263 24.232 71.3583 24.08 72.3343 24.08C73.6143 24.08 74.5983 24.376 75.2863 24.968C75.9903 25.56 76.3423 26.472 76.3423 27.704ZM84.8087 35.36C83.7687 35.36 82.8487 35.136 82.0487 34.688C81.2647 34.224 80.6487 33.576 80.2007 32.744C79.7687 31.896 79.5527 30.888 79.5527 29.72C79.5527 28.536 79.7847 27.528 80.2487 26.696C80.7127 25.848 81.3687 25.2 82.2167 24.752C83.0807 24.304 84.0807 24.08 85.2167 24.08C85.9687 24.08 86.6247 24.168 87.1847 24.344C87.7607 24.504 88.2567 24.736 88.6727 25.04V28.28C88.4167 28.328 88.1607 28.328 87.9047 28.28C87.6967 27.24 87.3447 26.44 86.8487 25.88C86.3527 25.32 85.7527 25.04 85.0487 25.04C84.4247 25.04 83.8887 25.224 83.4407 25.592C82.9927 25.944 82.6487 26.464 82.4087 27.152C82.1847 27.824 82.0727 28.648 82.0727 29.624C82.0727 30.504 82.2167 31.288 82.5047 31.976C82.8087 32.664 83.2167 33.2 83.7287 33.584C84.2407 33.968 84.8087 34.16 85.4327 34.16C85.8007 34.16 86.1527 34.104 86.4887 33.992C86.8247 33.88 87.1607 33.696 87.4967 33.44C87.8487 33.168 88.2167 32.808 88.6007 32.36C88.7287 32.44 88.8407 32.528 88.9367 32.624C89.0487 32.72 89.1607 32.832 89.2727 32.96C88.8247 33.504 88.3687 33.952 87.9047 34.304C87.4407 34.656 86.9607 34.92 86.4647 35.096C85.9687 35.272 85.4167 35.36 84.8087 35.36ZM90.8417 35.048C90.7777 34.744 90.7777 34.448 90.8417 34.16H92.2097C92.2897 33.552 92.3457 32.968 92.3777 32.408C92.4257 31.848 92.4497 31.272 92.4497 30.68V22.52C92.4497 21.368 92.3697 20.224 92.2097 19.088H90.8417C90.7777 18.784 90.7777 18.488 90.8417 18.2C91.4017 18.2 92.0657 18.184 92.8337 18.152C93.6017 18.104 94.3537 18.016 95.0897 17.888C94.9937 18.288 94.9217 18.776 94.8737 19.352C94.8257 19.912 94.7857 20.48 94.7537 21.056C94.7377 21.632 94.7297 22.12 94.7297 22.52V30.68C94.7297 31.272 94.7457 31.848 94.7777 32.408C94.8257 32.968 94.8897 33.552 94.9697 34.16H96.3377C96.4017 34.448 96.4017 34.744 96.3377 35.048C95.8417 35.016 95.3777 35 94.9457 35C94.5137 35 94.0657 35 93.6017 35C93.1377 35 92.6817 35 92.2337 35C91.8017 35 91.3377 35.016 90.8417 35.048ZM100.826 35.24C100.234 35.24 99.7777 35.152 99.4577 34.976C99.1537 34.784 98.9297 34.512 98.7857 34.16C98.6577 33.808 98.5457 33.392 98.4497 32.912L98.1377 31.328C98.0897 31.04 97.9857 30.768 97.8257 30.512C97.6817 30.24 97.4417 30.024 97.1057 29.864C96.7857 29.688 96.3057 29.6 95.6657 29.6H94.7297V28.76H95.9057C96.3217 28.76 96.6977 28.648 97.0337 28.424C97.3697 28.2 97.6897 27.864 97.9937 27.416C98.3137 26.952 98.5377 26.56 98.6657 26.24C98.8097 25.904 98.9057 25.6 98.9537 25.328H97.2737C97.2097 25.008 97.2097 24.696 97.2737 24.392C97.7217 24.408 98.0417 24.424 98.2337 24.44C98.4417 24.44 98.6017 24.44 98.7137 24.44C98.8417 24.44 99.0097 24.44 99.2177 24.44C99.5377 24.44 99.9377 24.44 100.418 24.44C100.914 24.424 101.498 24.408 102.17 24.392C102.234 24.696 102.234 25.008 102.17 25.328H101.042C100.594 25.712 100.186 26.144 99.8177 26.624C99.4657 27.104 99.1297 27.56 98.8097 27.992C98.5057 28.408 98.1857 28.728 97.8497 28.952C98.7457 29.016 99.3937 29.288 99.7937 29.768C100.194 30.232 100.45 30.752 100.562 31.328L100.85 32.672C100.978 33.264 101.138 33.656 101.33 33.848C101.538 34.04 101.882 34.144 102.362 34.16C102.41 34.432 102.41 34.712 102.362 35C102.154 35.064 101.906 35.12 101.618 35.168C101.33 35.216 101.066 35.24 100.826 35.24ZM109.389 35.048C109.325 34.744 109.325 34.448 109.389 34.16H111.117C111.197 33.44 111.253 32.744 111.285 32.072C111.333 31.384 111.357 30.68 111.357 29.96V23.24C111.357 22.52 111.333 21.824 111.285 21.152C111.253 20.464 111.197 19.76 111.117 19.04H109.389C109.325 18.736 109.325 18.44 109.389 18.152C109.949 18.168 110.501 18.184 111.045 18.2C111.589 18.2 112.133 18.2 112.677 18.2C113.237 18.2 113.789 18.2 114.333 18.2C114.877 18.184 115.421 18.168 115.965 18.152C116.029 18.44 116.029 18.736 115.965 19.04H114.237C114.157 19.76 114.093 20.464 114.045 21.152C114.013 21.824 113.997 22.52 113.997 23.24V29.96C113.997 30.68 114.013 31.384 114.045 32.072C114.093 32.744 114.157 33.44 114.237 34.16H115.965C116.029 34.448 116.029 34.744 115.965 35.048C115.421 35.016 114.877 35 114.333 35C113.789 35 113.237 35 112.677 35C112.133 35 111.589 35 111.045 35C110.501 35 109.949 35.016 109.389 35.048ZM121.857 35.36C121.025 35.36 120.353 35.168 119.841 34.784C119.329 34.384 119.073 33.744 119.073 32.864V27.56C119.073 27.128 119.065 26.64 119.049 26.096C119.049 25.536 119.033 24.976 119.001 24.416C118.985 23.84 118.945 23.328 118.881 22.88C119.169 22.784 119.425 22.656 119.649 22.496C119.889 22.32 120.097 22.12 120.273 21.896C120.465 21.672 120.617 21.44 120.729 21.2C120.985 21.152 121.241 21.152 121.497 21.2C121.433 22.272 121.393 23.344 121.377 24.416C121.361 25.472 121.353 26.536 121.353 27.608V32.768C121.353 33.312 121.433 33.704 121.593 33.944C121.769 34.168 122.017 34.28 122.337 34.28C122.577 34.28 122.825 34.224 123.081 34.112C123.337 34 123.553 33.848 123.729 33.656C123.857 33.736 123.969 33.832 124.065 33.944C124.161 34.056 124.257 34.176 124.353 34.304C124.065 34.608 123.737 34.856 123.369 35.048C123.017 35.256 122.513 35.36 121.857 35.36ZM117.393 25.4C117.345 25.08 117.345 24.76 117.393 24.44H124.113C124.161 24.76 124.161 25.08 124.113 25.4H117.393Z" fill="black"/>
</svg>
