<svg width="50" height="50" viewBox="0 0 50 50" fill="none" xmlns="http://www.w3.org/2000/svg">

    <path
        d="M24.3056 12.5C23.155 12.5 22.2222 13.4327 22.2222 14.5833V22.2222H14.5833C13.4327 22.2222 12.5 23.155 12.5 24.3056V25C12.5 26.1506 13.4327 27.0833 14.5833 27.0833H22.2222V34.7222C22.2222 35.8728 23.155 36.8056 24.3056 36.8056H25C26.1506 36.8056 27.0833 35.8728 27.0833 34.7222V27.0833H34.7222C35.8728 27.0833 36.8056 26.1506 36.8056 25V24.3056C36.8056 23.155 35.8728 22.2222 34.7222 22.2222H27.0833V14.5833C27.0833 13.4327 26.1506 12.5 25 12.5H24.3056Z"
        fill="white" transform="rotate(45 25 25)" />
</svg>